Coordinates
version=1
nRows=60
nColumns=12
inDegrees=yes

Units are S.I. units (second, meters, Newtons, ...)
Angles are in degrees

endheader
time	SC_y	SC_z	SC_x	AC_y	AC_z	AC_x	GH_y	GH_z	GH_yy	EL_x	PS_y
       0.0              -22.05          23.66          31.41          68.51         -13.01          14.01          14.16          44.49          43.28          111.3          141.1
   0.02424              -22.05          23.66          31.41          68.51         -13.01          14.01          14.16          44.49          43.28          111.3          141.1
   0.04848              -22.05          23.66          31.41          68.51         -13.01           14.0          14.18          44.49          43.27          111.3          141.1
   0.07272              -22.06          23.66          31.41           68.5         -13.01           14.0          14.19          44.49          43.27          111.3          141.1
   0.09696              -22.06          23.66          31.41           68.5         -13.01           14.0           14.2          44.49          43.26          111.2          141.1
    0.1212              -22.06          23.66          31.41          68.49         -13.01           14.0          14.21          44.48          43.26          111.2          141.1
    0.1454              -22.07          23.66          31.42          68.49         -13.01           14.0          14.22          44.48          43.25          111.2          141.1
    0.1697              -22.07          23.66          31.42          68.49          -13.0           14.0          14.24          44.48          43.24          111.2          141.1
    0.1939              -22.07          23.66          31.42          68.48          -13.0          13.99          14.25          44.48          43.24          111.2          141.1
    0.2182              -22.08          23.66          31.42          68.47          -13.0          13.99          14.27          44.48          43.23          111.1          141.1
    0.2424              -22.08          23.66          31.42          68.47          -13.0          13.99          14.29          44.47          43.22          111.1          141.1
    0.2666              -22.09          23.66          31.43          68.46          -13.0          13.98          14.31          44.47          43.22          111.1          141.1
    0.2909              -22.09          23.66          31.43          68.45         -12.99          13.98          14.33          44.47          43.21          111.0          141.1
    0.3151               -22.1          23.66          31.43          68.45         -12.99          13.98          14.35          44.46           43.2          111.0          141.1
    0.3394               -22.1          23.66          31.43          68.44         -12.99          13.98          14.37          44.46          43.19          111.0          141.1
    0.3636              -22.11          23.66          31.44          68.43         -12.99          13.97           14.4          44.46          43.18          110.9          141.1
    0.3878              -22.12          23.66          31.44          68.42         -12.98          13.97          14.43          44.45          43.17          110.9          141.1
    0.4121              -22.13          23.66          31.44          68.41         -12.98          13.96          14.46          44.45          43.15          110.8          141.1
    0.4363              -22.13          23.66          31.45           68.4         -12.97          13.96          14.49          44.44          43.14          110.8          141.1
    0.4606              -22.14          23.66          31.45          68.38         -12.97          13.95          14.53          44.44          43.12          110.7          141.1
    0.4848              -22.15          23.66          31.46          68.37         -12.97          13.95          14.57          44.43          43.11          110.7          141.2
     0.509              -22.16          23.66          31.46          68.35         -12.96          13.94          14.61          44.42          43.09          110.6          141.2
    0.5333              -22.18          23.66          31.47          68.34         -12.95          13.93          14.66          44.42          43.07          110.5          141.2
    0.5575              -22.19          23.65          31.48          68.32         -12.95          13.92          14.71          44.41          43.05          110.4          141.2
    0.5818               -22.2          23.65          31.48          68.29         -12.94          13.92          14.77           44.4          43.02          110.3          141.2
     0.606              -22.22          23.65          31.49          68.27         -12.93          13.91          14.84          44.39          42.99          110.2          141.2
    0.6302              -22.24          23.65           31.5          68.24         -12.92          13.89          14.91          44.38          42.96          110.1          141.2
    0.6545              -22.26          23.65          31.51          68.21         -12.91          13.88           15.0          44.36          42.93          110.0          141.2
    0.6787              -22.29          23.65          31.52          68.18          -12.9          13.87          15.09          44.35          42.89          109.8          141.2
     0.703              -22.31          23.65          31.54          68.14         -12.89          13.85           15.2          44.33          42.84          109.7          141.3
    0.7272              -22.34          23.64          31.55           68.1         -12.87          13.83          15.32          44.31          42.79          109.5          141.3
    0.7514              -22.38          23.64          31.57          68.05         -12.86          13.81          15.47          44.29          42.73          109.3          141.3
    0.7757              -22.42          23.64          31.59          67.99         -12.84          13.79          15.63          44.27          42.66          109.0          141.3
    0.7999              -22.47          23.64          31.61          67.92         -12.82          13.76          15.82          44.24          42.58          108.7          141.4
    0.8242              -22.52          23.63          31.64          67.84         -12.79          13.73          16.04          44.21          42.49          108.4          141.4
    0.8484              -22.59          23.63          31.67          67.75         -12.76          13.69           16.3          44.17          42.38          107.9          141.5
    0.8726              -22.67          23.62          31.71          67.64         -12.72          13.64          16.62          44.12          42.25          107.5          141.5
    0.8969              -22.76          23.62          31.76          67.51         -12.68          13.58          16.99          44.06          42.09          106.9          141.6
    0.9211              -22.88          23.61          31.81          67.35         -12.62          13.52          17.44          43.99           41.9          106.2          141.7
    0.9454              -23.01           23.6          31.88          67.15         -12.56          13.43          17.99          43.91          41.67          105.3          141.7
    0.9696              -23.19          23.59          31.96          66.91         -12.47          13.33          18.67           43.8          41.39          104.3          141.9
    0.9938               -23.4          23.58          32.07           66.6         -12.37           13.2          19.52          43.68          41.03          102.9          142.0
     1.018              -23.67          23.56           32.2          66.22         -12.24          13.04          20.59          43.51          40.58          101.3          142.2
     1.042              -24.01          23.54          32.37          65.74         -12.08          12.84          21.95           43.3          40.02          99.13          142.4
     1.067              -24.45          23.51          32.58          65.12         -11.87          12.58          23.69          43.04          39.29          96.41          142.7
     1.091              -25.01          23.47          32.86          64.33         -11.61          12.25          25.92           42.7          38.35          92.93          143.1
     1.115              -25.73          23.43          33.21          63.31         -11.27          11.82          28.78          42.26          37.16          88.47          143.6
     1.139              -26.63          23.37          33.65          62.03         -10.84          11.28          32.36          41.72          35.66          82.87          144.2
     1.164              -27.73           23.3          34.18          60.48         -10.31          10.63          36.74          41.05          33.83          76.05          145.0
     1.188               -29.0          23.22          34.81          58.68         -9.707          9.871           41.8          40.28          31.71          68.13          145.9
     1.212              -30.38          23.13          35.48          56.72         -9.051          9.051          47.29          39.44          29.41          59.57          146.8
     1.236              -31.76          23.04          36.16          54.77         -8.395           8.23          52.78          38.61          27.11           51.0          147.8
      1.26              -33.04          22.96          36.78          52.97         -7.789          7.472          57.84          37.83          24.99          43.09          148.6
     1.285              -34.14          22.88          37.32          51.41         -7.266          6.818          62.21          37.17          23.16          36.26          149.4
     1.309              -35.04          22.83          37.76          50.14         -6.837          6.281           65.8          36.62          21.66          30.66          150.0
     1.333              -35.76          22.78          38.11          49.12         -6.496          5.855          68.65          36.19          20.47          26.21          150.5
     1.357              -36.32          22.74          38.39          48.33         -6.228          5.521          70.89          35.84          19.53          22.72          150.9
     1.382              -36.76          22.72           38.6          47.71          -6.02           5.26          72.63          35.58           18.8           20.0          151.2
     1.406               -37.1          22.69          38.77          47.22         -5.858          5.057          73.99          35.37          18.23          17.88          151.4
      1.43              -37.37          22.68           38.9          46.84          -5.73          4.897          75.06          35.21          17.78          16.21          151.6
